<mxfile host="app.diagrams.net" agent="Mozilla/5.0 (Windows NT 10.0; Win64; x64) AppleWebKit/537.36 (KHTML, like Gecko) Chrome/129.0.0.0 Safari/537.36" version="24.7.16">
  <diagram name="Page-1" id="2Gl4b44V5FFW3uYvH6PN">
    <mxGraphModel dx="1434" dy="746" grid="1" gridSize="10" guides="1" tooltips="1" connect="1" arrows="1" fold="1" page="1" pageScale="1" pageWidth="1169" pageHeight="827" math="0" shadow="0">
      <root>
        <mxCell id="0" />
        <mxCell id="1" parent="0" />
        <mxCell id="zJSgsKGGuxwdJfE0XvD6-1" value="" style="whiteSpace=wrap;html=1;aspect=fixed;fillColor=none;" vertex="1" parent="1">
          <mxGeometry x="160" y="140" width="740" height="740" as="geometry" />
        </mxCell>
        <mxCell id="zJSgsKGGuxwdJfE0XvD6-2" value="&lt;b&gt;&lt;i style=&quot;&quot;&gt;&lt;font style=&quot;font-size: 25px;&quot;&gt;h1&lt;/font&gt;&lt;/i&gt;&lt;/b&gt;" style="text;html=1;align=center;verticalAlign=middle;whiteSpace=wrap;rounded=0;" vertex="1" parent="1">
          <mxGeometry x="380" y="150" width="40" height="40" as="geometry" />
        </mxCell>
        <mxCell id="zJSgsKGGuxwdJfE0XvD6-4" value="" style="rounded=1;whiteSpace=wrap;html=1;fillColor=none;" vertex="1" parent="1">
          <mxGeometry x="220" y="340" width="130" height="460" as="geometry" />
        </mxCell>
        <mxCell id="zJSgsKGGuxwdJfE0XvD6-5" value="&lt;span style=&quot;font-size: 20px;&quot;&gt;p2&lt;/span&gt;" style="text;html=1;align=center;verticalAlign=middle;whiteSpace=wrap;rounded=0;" vertex="1" parent="1">
          <mxGeometry x="250" y="350" width="60" height="30" as="geometry" />
        </mxCell>
        <mxCell id="zJSgsKGGuxwdJfE0XvD6-13" style="edgeStyle=orthogonalEdgeStyle;rounded=0;orthogonalLoop=1;jettySize=auto;html=1;entryX=0.5;entryY=0;entryDx=0;entryDy=0;" edge="1" parent="1" source="zJSgsKGGuxwdJfE0XvD6-6" target="zJSgsKGGuxwdJfE0XvD6-9">
          <mxGeometry relative="1" as="geometry" />
        </mxCell>
        <mxCell id="zJSgsKGGuxwdJfE0XvD6-6" value="p-atts" style="ellipse;whiteSpace=wrap;html=1;aspect=fixed;" vertex="1" parent="1">
          <mxGeometry x="240" y="390" width="80" height="80" as="geometry" />
        </mxCell>
        <mxCell id="zJSgsKGGuxwdJfE0XvD6-12" style="edgeStyle=orthogonalEdgeStyle;rounded=0;orthogonalLoop=1;jettySize=auto;html=1;entryX=1;entryY=0.5;entryDx=0;entryDy=0;" edge="1" parent="1" source="zJSgsKGGuxwdJfE0XvD6-7" target="zJSgsKGGuxwdJfE0XvD6-11">
          <mxGeometry relative="1" as="geometry">
            <Array as="points">
              <mxPoint x="880" y="180" />
              <mxPoint x="880" y="255" />
            </Array>
          </mxGeometry>
        </mxCell>
        <mxCell id="zJSgsKGGuxwdJfE0XvD6-7" value="h-atts" style="ellipse;whiteSpace=wrap;html=1;" vertex="1" parent="1">
          <mxGeometry x="500" y="140" width="200" height="80" as="geometry" />
        </mxCell>
        <mxCell id="zJSgsKGGuxwdJfE0XvD6-9" value="" style="rounded=0;whiteSpace=wrap;html=1;fillColor=none;" vertex="1" parent="1">
          <mxGeometry x="235" y="500" width="100" height="270" as="geometry" />
        </mxCell>
        <mxCell id="zJSgsKGGuxwdJfE0XvD6-10" value="activities" style="text;html=1;align=center;verticalAlign=middle;whiteSpace=wrap;rounded=0;" vertex="1" parent="1">
          <mxGeometry x="255" y="510" width="60" height="30" as="geometry" />
        </mxCell>
        <mxCell id="zJSgsKGGuxwdJfE0XvD6-14" style="edgeStyle=orthogonalEdgeStyle;rounded=0;orthogonalLoop=1;jettySize=auto;html=1;entryX=0;entryY=0.25;entryDx=0;entryDy=0;" edge="1" parent="1" source="zJSgsKGGuxwdJfE0XvD6-11" target="zJSgsKGGuxwdJfE0XvD6-9">
          <mxGeometry relative="1" as="geometry">
            <Array as="points">
              <mxPoint x="180" y="255" />
              <mxPoint x="180" y="568" />
            </Array>
          </mxGeometry>
        </mxCell>
        <mxCell id="zJSgsKGGuxwdJfE0XvD6-37" style="edgeStyle=orthogonalEdgeStyle;rounded=0;orthogonalLoop=1;jettySize=auto;html=1;entryX=1;entryY=0.5;entryDx=0;entryDy=0;" edge="1" parent="1" source="zJSgsKGGuxwdJfE0XvD6-11" target="zJSgsKGGuxwdJfE0XvD6-31">
          <mxGeometry relative="1" as="geometry">
            <Array as="points">
              <mxPoint x="840" y="385" />
              <mxPoint x="880" y="385" />
              <mxPoint x="880" y="635" />
            </Array>
          </mxGeometry>
        </mxCell>
        <mxCell id="zJSgsKGGuxwdJfE0XvD6-11" value="Contraints" style="rounded=0;whiteSpace=wrap;html=1;fillColor=none;" vertex="1" parent="1">
          <mxGeometry x="200" y="240" width="660" height="30" as="geometry" />
        </mxCell>
        <mxCell id="zJSgsKGGuxwdJfE0XvD6-60" style="edgeStyle=orthogonalEdgeStyle;rounded=0;orthogonalLoop=1;jettySize=auto;html=1;" edge="1" parent="1" source="zJSgsKGGuxwdJfE0XvD6-15" target="zJSgsKGGuxwdJfE0XvD6-16">
          <mxGeometry relative="1" as="geometry" />
        </mxCell>
        <mxCell id="zJSgsKGGuxwdJfE0XvD6-15" value="act1" style="shape=process;whiteSpace=wrap;html=1;backgroundOutline=1;" vertex="1" parent="1">
          <mxGeometry x="250" y="550" width="70" height="40" as="geometry" />
        </mxCell>
        <mxCell id="zJSgsKGGuxwdJfE0XvD6-55" style="edgeStyle=orthogonalEdgeStyle;rounded=0;orthogonalLoop=1;jettySize=auto;html=1;entryX=0.5;entryY=0;entryDx=0;entryDy=0;" edge="1" parent="1" source="zJSgsKGGuxwdJfE0XvD6-16" target="zJSgsKGGuxwdJfE0XvD6-17">
          <mxGeometry relative="1" as="geometry" />
        </mxCell>
        <mxCell id="zJSgsKGGuxwdJfE0XvD6-16" value="act2" style="shape=process;whiteSpace=wrap;html=1;backgroundOutline=1;" vertex="1" parent="1">
          <mxGeometry x="250" y="620" width="70" height="40" as="geometry" />
        </mxCell>
        <mxCell id="zJSgsKGGuxwdJfE0XvD6-17" value="act3" style="shape=process;whiteSpace=wrap;html=1;backgroundOutline=1;" vertex="1" parent="1">
          <mxGeometry x="250" y="680" width="70" height="40" as="geometry" />
        </mxCell>
        <mxCell id="zJSgsKGGuxwdJfE0XvD6-18" value="&lt;font style=&quot;font-size: 30px;&quot;&gt;...&lt;/font&gt;" style="text;html=1;align=center;verticalAlign=middle;whiteSpace=wrap;rounded=0;" vertex="1" parent="1">
          <mxGeometry x="255" y="730" width="60" height="30" as="geometry" />
        </mxCell>
        <mxCell id="zJSgsKGGuxwdJfE0XvD6-19" style="edgeStyle=orthogonalEdgeStyle;rounded=0;orthogonalLoop=1;jettySize=auto;html=1;exitX=0.5;exitY=1;exitDx=0;exitDy=0;" edge="1" parent="1" source="zJSgsKGGuxwdJfE0XvD6-18" target="zJSgsKGGuxwdJfE0XvD6-18">
          <mxGeometry relative="1" as="geometry" />
        </mxCell>
        <mxCell id="zJSgsKGGuxwdJfE0XvD6-20" value="" style="rounded=1;whiteSpace=wrap;html=1;fillColor=none;" vertex="1" parent="1">
          <mxGeometry x="455" y="340" width="130" height="460" as="geometry" />
        </mxCell>
        <mxCell id="zJSgsKGGuxwdJfE0XvD6-21" value="&lt;font style=&quot;font-size: 20px;&quot;&gt;p1 (main)&lt;/font&gt;" style="text;html=1;align=center;verticalAlign=middle;whiteSpace=wrap;rounded=0;" vertex="1" parent="1">
          <mxGeometry x="485" y="350" width="60" height="30" as="geometry" />
        </mxCell>
        <mxCell id="zJSgsKGGuxwdJfE0XvD6-43" style="edgeStyle=orthogonalEdgeStyle;rounded=0;orthogonalLoop=1;jettySize=auto;html=1;entryX=0.5;entryY=0;entryDx=0;entryDy=0;" edge="1" parent="1" source="zJSgsKGGuxwdJfE0XvD6-22" target="zJSgsKGGuxwdJfE0XvD6-23">
          <mxGeometry relative="1" as="geometry" />
        </mxCell>
        <mxCell id="zJSgsKGGuxwdJfE0XvD6-53" style="edgeStyle=orthogonalEdgeStyle;rounded=0;orthogonalLoop=1;jettySize=auto;html=1;" edge="1" parent="1" source="zJSgsKGGuxwdJfE0XvD6-22" target="zJSgsKGGuxwdJfE0XvD6-6">
          <mxGeometry relative="1" as="geometry" />
        </mxCell>
        <mxCell id="zJSgsKGGuxwdJfE0XvD6-54" style="edgeStyle=orthogonalEdgeStyle;rounded=0;orthogonalLoop=1;jettySize=auto;html=1;entryX=0;entryY=0.5;entryDx=0;entryDy=0;" edge="1" parent="1" source="zJSgsKGGuxwdJfE0XvD6-22" target="zJSgsKGGuxwdJfE0XvD6-30">
          <mxGeometry relative="1" as="geometry" />
        </mxCell>
        <mxCell id="zJSgsKGGuxwdJfE0XvD6-22" value="p-atts" style="ellipse;whiteSpace=wrap;html=1;aspect=fixed;" vertex="1" parent="1">
          <mxGeometry x="475" y="390" width="80" height="80" as="geometry" />
        </mxCell>
        <mxCell id="zJSgsKGGuxwdJfE0XvD6-23" value="" style="rounded=0;whiteSpace=wrap;html=1;fillColor=none;" vertex="1" parent="1">
          <mxGeometry x="470" y="500" width="100" height="270" as="geometry" />
        </mxCell>
        <mxCell id="zJSgsKGGuxwdJfE0XvD6-24" value="activities" style="text;html=1;align=center;verticalAlign=middle;whiteSpace=wrap;rounded=0;" vertex="1" parent="1">
          <mxGeometry x="490" y="510" width="60" height="30" as="geometry" />
        </mxCell>
        <mxCell id="zJSgsKGGuxwdJfE0XvD6-49" style="edgeStyle=orthogonalEdgeStyle;rounded=0;orthogonalLoop=1;jettySize=auto;html=1;entryX=1;entryY=0.5;entryDx=0;entryDy=0;" edge="1" parent="1" source="zJSgsKGGuxwdJfE0XvD6-25" target="zJSgsKGGuxwdJfE0XvD6-15">
          <mxGeometry relative="1" as="geometry" />
        </mxCell>
        <mxCell id="zJSgsKGGuxwdJfE0XvD6-50" style="edgeStyle=orthogonalEdgeStyle;rounded=0;orthogonalLoop=1;jettySize=auto;html=1;entryX=0;entryY=0.5;entryDx=0;entryDy=0;" edge="1" parent="1" source="zJSgsKGGuxwdJfE0XvD6-25" target="zJSgsKGGuxwdJfE0XvD6-33">
          <mxGeometry relative="1" as="geometry" />
        </mxCell>
        <mxCell id="zJSgsKGGuxwdJfE0XvD6-59" style="edgeStyle=orthogonalEdgeStyle;rounded=0;orthogonalLoop=1;jettySize=auto;html=1;" edge="1" parent="1" source="zJSgsKGGuxwdJfE0XvD6-25" target="zJSgsKGGuxwdJfE0XvD6-26">
          <mxGeometry relative="1" as="geometry" />
        </mxCell>
        <mxCell id="zJSgsKGGuxwdJfE0XvD6-25" value="act1" style="shape=process;whiteSpace=wrap;html=1;backgroundOutline=1;fillColor=#fff2cc;strokeColor=#d6b656;" vertex="1" parent="1">
          <mxGeometry x="485" y="550" width="70" height="40" as="geometry" />
        </mxCell>
        <mxCell id="zJSgsKGGuxwdJfE0XvD6-56" style="edgeStyle=orthogonalEdgeStyle;rounded=0;orthogonalLoop=1;jettySize=auto;html=1;" edge="1" parent="1" source="zJSgsKGGuxwdJfE0XvD6-26" target="zJSgsKGGuxwdJfE0XvD6-27">
          <mxGeometry relative="1" as="geometry" />
        </mxCell>
        <mxCell id="zJSgsKGGuxwdJfE0XvD6-26" value="act2" style="shape=process;whiteSpace=wrap;html=1;backgroundOutline=1;" vertex="1" parent="1">
          <mxGeometry x="485" y="620" width="70" height="40" as="geometry" />
        </mxCell>
        <mxCell id="zJSgsKGGuxwdJfE0XvD6-27" value="act3" style="shape=process;whiteSpace=wrap;html=1;backgroundOutline=1;" vertex="1" parent="1">
          <mxGeometry x="485" y="680" width="70" height="40" as="geometry" />
        </mxCell>
        <mxCell id="zJSgsKGGuxwdJfE0XvD6-28" value="" style="rounded=1;whiteSpace=wrap;html=1;fillColor=none;" vertex="1" parent="1">
          <mxGeometry x="700" y="340" width="130" height="460" as="geometry" />
        </mxCell>
        <mxCell id="zJSgsKGGuxwdJfE0XvD6-29" value="&lt;font style=&quot;font-size: 20px;&quot;&gt;p3&lt;/font&gt;" style="text;html=1;align=center;verticalAlign=middle;whiteSpace=wrap;rounded=0;" vertex="1" parent="1">
          <mxGeometry x="730" y="350" width="60" height="30" as="geometry" />
        </mxCell>
        <mxCell id="zJSgsKGGuxwdJfE0XvD6-45" style="edgeStyle=orthogonalEdgeStyle;rounded=0;orthogonalLoop=1;jettySize=auto;html=1;entryX=0.5;entryY=0;entryDx=0;entryDy=0;" edge="1" parent="1" source="zJSgsKGGuxwdJfE0XvD6-30" target="zJSgsKGGuxwdJfE0XvD6-31">
          <mxGeometry relative="1" as="geometry" />
        </mxCell>
        <mxCell id="zJSgsKGGuxwdJfE0XvD6-30" value="p-atts" style="ellipse;whiteSpace=wrap;html=1;aspect=fixed;" vertex="1" parent="1">
          <mxGeometry x="720" y="390" width="80" height="80" as="geometry" />
        </mxCell>
        <mxCell id="zJSgsKGGuxwdJfE0XvD6-31" value="" style="rounded=0;whiteSpace=wrap;html=1;fillColor=none;" vertex="1" parent="1">
          <mxGeometry x="715" y="500" width="100" height="270" as="geometry" />
        </mxCell>
        <mxCell id="zJSgsKGGuxwdJfE0XvD6-32" value="activities" style="text;html=1;align=center;verticalAlign=middle;whiteSpace=wrap;rounded=0;" vertex="1" parent="1">
          <mxGeometry x="735" y="510" width="60" height="30" as="geometry" />
        </mxCell>
        <mxCell id="zJSgsKGGuxwdJfE0XvD6-58" style="edgeStyle=orthogonalEdgeStyle;rounded=0;orthogonalLoop=1;jettySize=auto;html=1;" edge="1" parent="1" source="zJSgsKGGuxwdJfE0XvD6-33" target="zJSgsKGGuxwdJfE0XvD6-34">
          <mxGeometry relative="1" as="geometry" />
        </mxCell>
        <mxCell id="zJSgsKGGuxwdJfE0XvD6-33" value="act1" style="shape=process;whiteSpace=wrap;html=1;backgroundOutline=1;" vertex="1" parent="1">
          <mxGeometry x="730" y="550" width="70" height="40" as="geometry" />
        </mxCell>
        <mxCell id="zJSgsKGGuxwdJfE0XvD6-57" style="edgeStyle=orthogonalEdgeStyle;rounded=0;orthogonalLoop=1;jettySize=auto;html=1;" edge="1" parent="1" source="zJSgsKGGuxwdJfE0XvD6-34" target="zJSgsKGGuxwdJfE0XvD6-35">
          <mxGeometry relative="1" as="geometry" />
        </mxCell>
        <mxCell id="zJSgsKGGuxwdJfE0XvD6-34" value="act2" style="shape=process;whiteSpace=wrap;html=1;backgroundOutline=1;" vertex="1" parent="1">
          <mxGeometry x="730" y="620" width="70" height="40" as="geometry" />
        </mxCell>
        <mxCell id="zJSgsKGGuxwdJfE0XvD6-35" value="act3" style="shape=process;whiteSpace=wrap;html=1;backgroundOutline=1;" vertex="1" parent="1">
          <mxGeometry x="730" y="680" width="70" height="40" as="geometry" />
        </mxCell>
        <mxCell id="zJSgsKGGuxwdJfE0XvD6-47" value="&lt;font style=&quot;font-size: 30px;&quot;&gt;...&lt;/font&gt;" style="text;html=1;align=center;verticalAlign=middle;whiteSpace=wrap;rounded=0;" vertex="1" parent="1">
          <mxGeometry x="485" y="730" width="60" height="30" as="geometry" />
        </mxCell>
        <mxCell id="zJSgsKGGuxwdJfE0XvD6-48" value="&lt;font style=&quot;font-size: 30px;&quot;&gt;...&lt;/font&gt;" style="text;html=1;align=center;verticalAlign=middle;whiteSpace=wrap;rounded=0;" vertex="1" parent="1">
          <mxGeometry x="730" y="730" width="60" height="30" as="geometry" />
        </mxCell>
        <mxCell id="zJSgsKGGuxwdJfE0XvD6-52" style="edgeStyle=orthogonalEdgeStyle;rounded=0;orthogonalLoop=1;jettySize=auto;html=1;entryX=1;entryY=0.104;entryDx=0;entryDy=0;entryPerimeter=0;" edge="1" parent="1" source="zJSgsKGGuxwdJfE0XvD6-11" target="zJSgsKGGuxwdJfE0XvD6-23">
          <mxGeometry relative="1" as="geometry">
            <Array as="points">
              <mxPoint x="630" y="528" />
            </Array>
          </mxGeometry>
        </mxCell>
      </root>
    </mxGraphModel>
  </diagram>
</mxfile>
